<?xml version="1.0" standalone="no"?>
<!DOCTYPE svg PUBLIC "-//W3C//DTD SVG 20010904//EN"
 "http://www.w3.org/TR/2001/REC-SVG-20010904/DTD/svg10.dtd">
<svg version="1.0" xmlns="http://www.w3.org/2000/svg"
 width="1024.000000pt" height="1024.000000pt" viewBox="0 0 1024.000000 1024.000000"
 preserveAspectRatio="xMidYMid meet">
<metadata>
Created by potrace 1.14, written by Peter Selinger 2001-2017
</metadata>
<g transform="translate(0.000000,1024.000000) scale(0.100000,-0.100000)"
fill="#000000" stroke="none">
<path d="M4775 9854 c-1152 -91 -2204 -572 -3010 -1379 -692 -691 -1158 -1587
-1319 -2535 -54 -317 -61 -409 -61 -820 0 -411 7 -503 61 -820 312 -1835 1709
-3332 3528 -3785 197 -49 391 -84 616 -112 209 -26 851 -26 1060 0 786 98
1472 348 2105 770 1074 715 1822 1861 2039 3127 54 315 61 408 61 820 0 412
-7 505 -61 820 -163 948 -624 1838 -1309 2525 -382 383 -783 671 -1268 911
-491 242 -983 387 -1557 460 -120 15 -757 28 -885 18z m865 -118 c570 -72
1043 -211 1527 -450 928 -458 1644 -1169 2103 -2086 253 -505 393 -975 467
-1570 26 -208 26 -812 0 -1020 -74 -596 -213 -1064 -466 -1570 -459 -916
-1177 -1628 -2104 -2086 -490 -242 -958 -379 -1537 -451 -208 -26 -812 -26
-1020 0 -579 72 -1047 209 -1537 451 -890 439 -1578 1103 -2047 1976 -278 516
-445 1052 -523 1680 -14 116 -18 219 -18 510 0 291 4 394 18 510 78 628 245
1164 523 1680 469 873 1157 1537 2047 1976 540 267 1100 419 1722 468 124 10
725 -3 845 -18z"/>
<path d="M5482 9648 c-19 -19 -14 -56 9 -68 16 -9 26 -8 45 5 27 17 29 27 14
56 -12 21 -50 25 -68 7z"/>
<path d="M3915 9495 c-5 -2 -63 -18 -127 -36 -79 -21 -118 -36 -118 -45 0 -10
7 -13 23 -9 12 3 29 0 39 -7 19 -15 140 -451 131 -474 -3 -9 -15 -20 -27 -25
-11 -5 -28 -13 -36 -18 -8 -6 -69 -31 -135 -56 -661 -256 -1286 -731 -1722
-1309 -80 -106 -116 -141 -136 -133 -7 3 -60 35 -117 71 -119 76 -139 83 -180
66 -46 -19 -74 -74 -75 -142 0 -55 -1 -56 -20 -44 -145 93 -184 116 -193 116
-12 0 -28 -98 -17 -108 3 -4 11 1 16 11 6 9 16 17 24 17 7 0 101 -55 207 -123
190 -121 193 -124 191 -156 -2 -40 -32 -101 -50 -101 -7 0 -13 -11 -13 -25 0
-14 -3 -25 -7 -25 -4 0 -64 27 -134 60 -69 33 -140 60 -156 60 -55 0 -96 -50
-123 -148 -18 -69 11 -132 54 -116 27 10 27 37 0 75 -28 41 -28 71 2 117 17
25 66 30 109 10 23 -10 26 -16 21 -42 -4 -17 -9 -67 -12 -112 -9 -115 19 -164
95 -164 l30 0 -27 -62 c-29 -67 -55 -97 -86 -98 -11 0 -123 38 -251 85 -127
47 -237 85 -243 85 -8 0 -12 -19 -12 -55 0 -59 9 -68 32 -33 l15 22 214 -78
c118 -43 220 -84 227 -91 21 -20 15 -84 -17 -175 -16 -47 -30 -77 -30 -68 -3
54 -124 128 -209 128 -86 -1 -162 -63 -181 -148 -25 -119 60 -217 198 -229 46
-4 65 0 104 20 34 17 47 21 43 11 -3 -8 -11 -44 -18 -80 -6 -37 -18 -68 -25
-71 -7 -3 -13 -11 -13 -18 0 -26 -79 -78 -231 -153 -10 -5 -98 136 -102 164
-5 37 -24 42 -31 7 -14 -75 -18 -143 -7 -143 6 0 16 11 21 25 5 14 14 25 19
25 5 0 36 -43 69 -95 72 -112 89 -104 -156 -71 l-172 23 1 -26 c2 -40 13 -74
27 -79 6 -2 12 4 12 12 0 9 7 19 15 22 16 7 428 -44 463 -57 12 -5 22 -17 22
-27 0 -10 5 -23 10 -28 7 -7 8 -42 4 -96 l-7 -86 -29 34 c-28 32 -58 45 -58
26 0 -5 13 -21 29 -36 37 -36 55 -103 41 -155 -16 -60 -73 -101 -141 -101
l-29 0 0 150 0 150 -25 0 c-36 0 -95 -27 -127 -57 -57 -55 -58 -166 -1 -234
73 -87 231 -93 316 -12 l27 27 0 -46 c0 -25 3 -86 7 -137 l6 -93 -38 26 c-21
14 -50 26 -64 27 -114 5 -158 -35 -187 -171 -29 -136 -35 -153 -69 -187 -62
-62 -153 -36 -176 49 -19 71 3 137 68 209 20 22 33 42 30 45 -3 3 -37 -11 -77
-31 -55 -28 -69 -39 -61 -49 6 -7 10 -48 9 -92 -2 -141 47 -209 149 -209 91 0
138 56 167 198 34 161 53 187 135 187 80 0 121 -50 121 -147 0 -59 -26 -118
-75 -172 -21 -23 -35 -45 -31 -48 4 -4 36 7 72 25 45 23 66 28 68 20 3 -7 9
-42 16 -78 52 -296 177 -671 324 -975 204 -421 437 -747 776 -1085 328 -328
653 -564 1053 -761 77 -38 132 -69 123 -69 -9 0 -16 -4 -16 -10 0 -5 7 -10 15
-10 19 0 19 -2 -2 -45 -11 -23 -24 -35 -37 -35 -19 -1 -19 -1 -3 -11 13 -8 15
-14 7 -30 -6 -11 -7 -19 -1 -19 5 0 11 7 15 15 3 8 12 15 20 15 9 0 13 6 10
14 -3 8 2 29 11 46 9 18 15 40 12 50 -4 14 17 8 108 -29 62 -25 109 -47 105
-49 -5 -2 -19 2 -31 9 -19 10 -21 9 -16 -5 3 -8 0 -34 -8 -57 -18 -51 -18 -49
0 -49 8 0 14 3 13 8 -1 4 3 22 9 39 9 26 18 33 37 33 30 0 31 -5 11 -53 -18
-44 -19 -57 -2 -57 18 0 40 99 25 117 -8 10 8 7 48 -8 69 -25 82 -34 37 -24
-26 5 -32 4 -28 -7 3 -7 -6 -46 -19 -86 -24 -70 -24 -72 -5 -72 11 0 18 4 15
9 -4 5 -3 16 0 25 4 11 11 13 31 5 32 -12 57 2 73 41 11 26 10 34 -5 56 -17
26 -17 27 1 20 11 -4 61 -20 112 -34 52 -15 89 -28 82 -30 -8 -3 -8 -8 0 -17
13 -15 -14 -135 -33 -147 -15 -9 -9 -14 27 -22 24 -6 27 -5 19 6 -16 19 14
141 38 156 20 13 132 -4 124 -19 -7 -11 23 -39 43 -40 10 0 6 -5 -10 -10 -15
-6 -30 -19 -33 -30 -4 -10 -11 -19 -17 -19 -5 0 -8 -5 -6 -12 2 -6 27 -13 55
-16 45 -3 52 -1 58 18 4 12 4 24 1 27 -3 4 -1 12 5 20 6 7 8 13 4 13 -4 0 -2
7 5 15 7 8 24 14 39 14 14 -1 19 -3 11 -5 -11 -3 -15 -19 -15 -59 0 -30 3 -56
5 -58 3 -3 27 -8 53 -11 47 -7 48 -7 41 18 -9 36 13 96 35 96 15 0 18 -10 20
-62 1 -33 4 -65 7 -70 7 -12 72 -10 79 3 11 17 -4 24 -25 11 -28 -17 -40 -15
-40 8 0 14 7 20 23 20 29 0 62 34 54 55 -5 12 2 15 33 15 65 0 90 -17 90 -62
0 -32 -3 -38 -20 -38 -11 0 -23 7 -26 15 -11 28 -24 15 -24 -22 1 -31 3 -35
11 -20 5 9 22 17 36 17 23 0 25 -3 19 -32 -3 -17 -8 -33 -10 -36 -9 -9 -68 11
-73 24 -3 8 -9 14 -14 14 -4 0 -5 -10 0 -22 7 -19 18 -24 67 -28 l59 -5 0 79
c0 55 4 81 13 84 6 2 9 9 6 14 -5 8 5 9 32 5 21 -4 61 -7 87 -7 l48 0 -20 -26
c-29 -36 -29 -112 0 -148 30 -38 42 -32 17 9 -15 27 -19 47 -15 81 6 58 30 84
76 84 29 -1 33 -3 19 -11 -10 -5 -18 -14 -18 -20 0 -5 9 -4 20 3 28 18 54 -1
58 -41 4 -37 -19 -51 -50 -32 -25 15 -35 7 -18 -14 16 -19 40 -19 68 1 27 18
30 69 5 96 -15 17 -14 18 20 18 43 0 66 -27 74 -89 4 -30 0 -49 -16 -77 -28
-47 -21 -54 14 -12 24 28 27 39 23 85 -3 32 -12 61 -23 73 -18 20 -18 20 32
20 28 0 72 3 99 6 41 6 47 4 37 -7 -7 -7 -13 -22 -12 -33 0 -20 1 -20 16 1 15
22 73 34 73 15 0 -4 -18 -26 -40 -47 -46 -45 -51 -77 -16 -101 22 -13 29 -14
53 -2 27 13 41 58 18 58 -5 0 -10 -10 -10 -23 0 -26 -42 -37 -56 -15 -15 23
-10 36 31 83 41 48 49 70 28 78 -7 3 4 6 25 6 36 1 37 0 32 -26 -6 -24 -5 -26
7 -12 15 18 78 36 78 22 0 -5 -12 -20 -26 -34 -14 -13 -33 -37 -41 -52 -13
-25 -13 -31 2 -53 19 -30 58 -31 86 -3 21 21 21 40 1 47 -7 2 -12 -7 -12 -22
0 -22 -4 -26 -30 -26 -26 0 -30 4 -30 28 0 17 9 37 21 48 12 10 30 38 41 61
16 37 23 43 50 43 25 0 29 -3 20 -12 -20 -20 -15 -112 9 -142 33 -42 79 -34
98 17 18 45 -14 136 -47 138 -26 1 14 15 63 22 22 3 34 3 28 0 -7 -2 -13 -17
-13 -31 0 -26 0 -26 15 -5 8 11 28 23 44 25 33 5 33 2 -11 -53 -45 -59 -34
-109 24 -109 29 0 65 40 53 60 -11 18 -26 11 -23 -11 4 -25 -22 -45 -46 -36
-24 10 -19 47 14 96 17 24 30 54 30 66 0 19 8 24 57 34 34 6 59 8 61 2 2 -5
11 -7 20 -4 26 6 46 -69 23 -85 -14 -10 -14 -11 1 -11 9 -1 22 -9 27 -19 9
-15 10 -15 11 5 0 12 5 25 11 28 7 5 5 11 -4 18 -8 7 -17 24 -21 39 -3 14 -8
33 -12 41 -6 16 26 29 44 18 6 -4 17 -24 24 -45 17 -51 41 -67 65 -43 17 18
17 18 -8 12 -22 -6 -27 -2 -36 30 -13 40 -9 61 12 69 19 7 30 -11 43 -66 21
-85 30 -102 48 -87 10 8 11 14 4 19 -6 4 -19 34 -29 68 -24 78 -15 94 47 85
36 -5 40 -7 26 -18 -11 -8 -15 -21 -12 -38 3 -15 0 -28 -6 -30 -6 -2 -8 -7 -5
-11 10 -10 81 17 93 36 8 13 8 23 -2 38 -7 12 -10 25 -7 30 3 4 0 10 -6 12 -8
3 -6 10 5 21 19 18 41 23 31 7 -3 -6 -2 -10 4 -10 5 0 17 -20 27 -45 9 -25 21
-44 26 -43 11 4 10 11 -9 56 -8 19 -11 41 -8 51 6 18 53 40 73 33 32 -10 38
-92 6 -92 -8 0 -14 -7 -14 -15 0 -21 17 -19 31 4 7 11 19 16 31 13 22 -5 22
-5 -2 46 -11 22 -20 46 -20 51 0 6 18 20 41 31 l41 21 -4 -65 c-3 -69 -2 -72
22 -56 10 6 11 10 3 10 -8 0 -13 15 -13 42 l0 42 30 -29 c16 -15 27 -32 24
-37 -8 -13 10 -9 32 7 15 11 16 15 4 15 -8 1 -32 16 -53 35 l-39 34 29 14 c45
23 77 31 68 17 -12 -19 16 -70 42 -76 27 -7 93 19 93 36 0 5 -4 10 -8 10 -8 0
-42 63 -42 79 0 4 11 13 25 19 22 10 25 9 25 -9 0 -51 45 -88 83 -68 45 24 50
68 12 103 l-25 23 28 14 c15 7 31 15 35 17 4 2 5 -8 1 -22 -4 -16 -2 -26 5
-26 6 0 11 8 11 18 0 23 30 52 54 52 28 0 76 -55 76 -87 0 -45 -14 -57 -61
-56 -40 2 -41 1 -21 -13 38 -27 102 15 102 67 0 43 -24 84 -59 100 l-30 15 77
46 c241 144 482 337 723 578 310 310 520 594 727 985 75 142 81 151 41 58 -13
-29 -19 -56 -15 -60 5 -5 11 -2 13 5 13 36 40 32 164 -23 68 -30 135 -55 149
-55 68 0 119 91 99 177 -4 21 -6 39 -5 41 2 2 55 -20 117 -47 62 -28 114 -51
116 -51 2 0 3 27 3 60 0 33 -3 60 -6 60 -3 0 -14 -10 -24 -22 l-18 -22 -198
88 c-242 107 -246 109 -238 141 8 34 -11 32 -31 -2 -19 -34 -18 -28 19 71 26
69 31 76 39 58 14 -30 29 -28 21 3 -8 34 7 33 147 -10 138 -42 177 -44 211
-10 44 44 67 172 39 223 -8 15 -21 22 -41 22 -25 0 -30 -4 -30 -23 0 -13 11
-34 25 -47 30 -28 34 -92 9 -128 -17 -24 -63 -29 -109 -12 -25 10 -26 12 -19
68 17 154 -56 263 -147 218 -31 -15 -31 -15 -25 7 4 12 12 44 18 71 8 32 18
51 30 54 10 2 18 10 18 17 0 37 25 36 266 -15 318 -66 288 -65 285 -5 -3 61
-16 78 -31 41 -12 -33 9 -35 -285 27 -199 42 -200 42 -203 69 -2 16 -9 28 -18
28 -10 0 -13 7 -9 25 3 14 7 36 10 50 3 14 12 25 20 25 8 0 15 6 15 14 0 37
22 37 279 1 138 -19 259 -35 267 -35 13 0 15 7 10 38 -10 55 -16 72 -27 72 -5
0 -9 -6 -9 -14 0 -36 -23 -36 -251 -4 -123 17 -230 36 -236 41 -7 5 -13 18
-13 28 0 11 -7 19 -16 19 -12 0 -15 6 -10 23 3 12 6 42 7 67 1 30 3 36 6 18 5
-35 21 -36 34 -1 l10 26 174 -7 c123 -5 175 -3 175 4 0 25 -23 100 -30 100 -5
0 -10 -10 -12 -22 -3 -21 -9 -23 -68 -26 -36 -2 -98 -1 -138 3 -68 6 -73 8
-89 38 -9 18 -17 54 -17 81 0 73 10 77 173 70 75 -3 148 -7 164 -9 31 -5 34 6
16 67 -12 44 -24 49 -33 13 l-6 -24 -129 6 c-136 6 -170 2 -195 -23 -15 -14
-16 -2 -16 137 l0 152 23 -21 c87 -82 278 -63 338 35 27 43 29 124 5 170 -9
18 -16 34 -16 38 0 3 19 5 43 5 23 0 72 3 108 6 l67 7 -20 48 c-21 49 -48 66
-48 30 0 -11 -4 -22 -9 -25 -11 -7 -504 -46 -510 -40 -11 11 -21 128 -11 138
5 5 10 20 10 32 0 27 -4 26 190 59 85 15 157 28 159 30 6 6 -43 88 -56 92 -6
3 -13 -8 -15 -24 -3 -27 -5 -28 -128 -50 -159 -28 -159 -28 -170 3 -6 14 -14
23 -18 20 -7 -4 -53 173 -47 181 1 2 19 -7 41 -18 79 -41 224 -7 280 66 45 60
44 149 -3 205 -14 17 -24 32 -22 34 2 2 50 15 107 31 56 15 102 30 102 34 -1
10 -61 86 -68 85 -4 0 -9 -13 -12 -29 -5 -27 -9 -29 -250 -95 l-245 -67 -22
66 c-12 36 -23 67 -23 69 0 1 7 2 15 2 20 0 19 10 -2 26 -26 19 -14 26 132 87
116 48 132 57 150 89 19 35 19 38 1 93 -18 59 -88 145 -119 145 -17 0 -47 -26
-47 -40 0 -19 33 -40 64 -40 37 0 60 -21 77 -68 15 -42 -6 -76 -58 -93 -36
-11 -38 -11 -58 16 -38 53 -99 116 -126 131 -51 26 -118 12 -136 -29 -8 -18
-13 -12 -41 48 -18 38 -29 71 -24 74 4 3 7 23 7 44 l0 39 205 119 c113 65 208
119 213 119 4 0 16 -9 27 -20 20 -20 40 -26 40 -13 0 15 -93 163 -99 158 -3
-4 -6 -23 -6 -43 0 -35 -3 -37 -93 -90 -52 -29 -95 -52 -96 -50 -15 18 -148
259 -145 262 2 1 45 26 96 55 77 45 95 51 112 41 12 -6 21 -15 21 -20 0 -6 7
-10 15 -10 8 0 15 2 15 5 0 14 -93 165 -101 165 -5 0 -7 -17 -3 -38 l6 -38
-210 -122 c-115 -67 -214 -122 -219 -122 -5 0 -18 9 -28 20 -10 11 -24 19 -31
18 -6 -2 -44 42 -84 97 -131 180 -241 307 -424 490 -187 187 -341 317 -531
450 -236 165 -538 328 -796 430 -94 37 -130 56 -140 75 -9 14 -56 47 -119 80
-57 30 -105 61 -108 68 -5 17 37 15 81 -3 81 -33 165 -6 193 62 9 20 14 49 12
65 -4 28 14 40 27 18 9 -14 41 -12 54 3 8 10 7 18 -3 32 -11 15 -21 17 -58 12
-38 -5 -49 -3 -63 13 -10 11 -42 27 -71 37 -66 21 -120 8 -158 -38 -31 -36
-36 -111 -10 -147 14 -21 14 -22 -6 -22 -27 0 -60 -17 -60 -32 0 -7 10 -22 21
-34 l21 -23 -34 -6 c-53 -10 -179 28 -191 57 -2 7 4 58 14 113 26 142 25 190
-5 220 -44 44 -91 43 -200 -4 -4 -2 -5 11 -1 29 l7 32 -53 -7 c-30 -4 -56 -9
-59 -12 -4 -4 16 -19 35 -26 8 -3 -28 -247 -42 -283 -7 -19 -84 -25 -138 -11
l-50 13 0 55 c0 30 4 111 9 181 l8 127 -52 -14 c-65 -17 -70 -22 -36 -34 23
-9 26 -16 26 -58 -1 -86 -18 -235 -30 -247 -6 -6 -42 -9 -86 -8 -59 2 -83 7
-105 23 -20 14 -67 27 -140 39 -155 25 -174 50 -40 54 77 2 111 19 141 69 24
38 25 66 5 113 l-15 36 39 -7 c31 -5 40 -3 45 11 15 39 -35 57 -80 28 -20 -14
-30 -15 -50 -5 -38 17 -124 14 -164 -7 -72 -38 -88 -128 -33 -192 14 -17 24
-32 22 -34 -2 -2 -14 -9 -27 -15 -29 -15 -26 -52 6 -66 12 -5 22 -12 22 -15 0
-4 -21 -14 -47 -23 -53 -19 -133 -23 -133 -7 0 6 -8 5 -20 -2 -12 -8 -23 -9
-28 -3 -5 6 -17 68 -26 139 -19 146 -32 178 -76 196 -54 23 -159 -1 -212 -48
-21 -18 -23 -55 -4 -71 21 -17 44 -3 56 35 14 43 44 64 91 64 45 0 69 -25 76
-77 5 -39 5 -40 -43 -58 -69 -25 -131 -63 -154 -92 -22 -29 -27 -102 -8 -121
6 -6 10 -13 7 -15 -2 -1 -57 -13 -122 -26 -66 -13 -128 -26 -140 -29 -21 -5
-20 -4 5 26 83 99 71 284 -26 399 -41 48 -119 83 -185 82 -31 0 -60 -2 -66 -4z
m120 -44 c140 -63 200 -290 113 -422 -40 -60 -186 -113 -215 -78 -17 21 -125
428 -121 458 2 21 12 29 53 43 65 22 120 22 170 -1z m1099 -30 c11 -12 21 -39
24 -70 4 -46 2 -53 -26 -81 -55 -54 -131 -35 -153 39 -16 55 3 108 45 127 37
17 84 10 110 -15z m810 -71 c14 -5 28 -20 31 -33 8 -29 -32 -257 -48 -275 -22
-27 -177 9 -177 41 0 32 43 234 52 245 22 26 100 38 142 22z m-1279 -155 c4
-35 5 -71 2 -79 -8 -19 -53 -42 -98 -51 -73 -14 -110 65 -57 123 22 24 111 72
135 72 7 0 14 -26 18 -65z m1765 50 c82 -42 39 -195 -54 -195 -68 0 -109 64
-86 135 22 66 80 91 140 60z m-1301 -141 c2 -2 -27 -4 -65 -3 -44 0 -62 3 -49
8 18 7 104 3 114 -5z m1191 -175 c37 -21 19 -19 -50 7 -30 11 -32 13 -10 13
14 0 41 -9 60 -20z m193 -279 c24 0 337 -144 462 -213 107 -58 331 -197 370
-229 11 -9 65 -50 120 -91 55 -41 132 -103 170 -138 107 -98 264 -262 281
-295 9 -16 23 -38 33 -49 18 -20 31 -47 37 -74 1 -7 12 -23 23 -35 22 -23 28
-56 11 -56 -12 0 15 -52 53 -101 15 -20 27 -48 27 -62 0 -15 5 -27 10 -27 6 0
10 -5 10 -11 0 -6 10 -24 21 -41 17 -23 19 -32 9 -38 -10 -6 -8 -15 9 -38 11
-17 21 -35 21 -41 0 -6 5 -11 10 -11 6 0 10 -10 10 -22 0 -13 9 -34 20 -48 11
-14 20 -35 20 -47 0 -12 5 -25 10 -28 6 -3 10 -17 10 -30 0 -12 7 -25 15 -29
9 -3 15 -18 15 -35 0 -16 11 -49 25 -72 14 -24 25 -52 25 -61 0 -10 5 -18 10
-18 6 0 10 -11 10 -25 0 -14 13 -52 30 -85 16 -32 27 -66 24 -74 -3 -8 3 -23
13 -33 25 -25 43 -68 44 -106 0 -18 3 -26 6 -18 8 19 42 -64 42 -101 1 -16 5
-28 9 -28 11 0 32 -69 32 -104 0 -43 38 -167 55 -180 11 -8 17 -31 19 -66 3
-47 6 -55 22 -52 12 2 15 0 7 -5 -8 -6 -9 -20 -4 -45 6 -25 5 -38 -2 -41 -7
-2 -2 -15 11 -32 12 -15 22 -32 22 -38 0 -5 -16 11 -35 36 -19 25 -44 48 -55
52 -11 3 -20 12 -20 19 0 12 -30 51 -84 110 -15 17 -38 43 -50 57 -27 32 -123
99 -142 99 -8 0 -14 4 -14 9 0 31 -295 42 -417 17 -65 -14 -161 -47 -193 -67
-8 -5 -42 -23 -75 -39 -33 -16 -67 -34 -75 -38 -8 -5 -28 -16 -45 -25 -123
-63 -212 -110 -223 -119 -7 -6 -26 -18 -43 -27 -16 -9 -62 -38 -100 -65 l-71
-49 -46 23 c-46 22 -55 23 -384 25 -185 1 -343 -2 -349 -6 -17 -10 -38 -89
-45 -164 -4 -33 -8 -62 -10 -64 -7 -8 -33 33 -49 78 -19 57 -6 112 34 142 27
20 28 25 35 127 13 202 24 297 38 343 8 25 13 59 11 75 -3 17 -1 45 4 64 8 31
13 34 70 46 33 7 75 20 92 29 36 18 71 69 71 102 0 12 13 57 29 100 16 43 39
119 51 168 12 50 43 133 69 185 l46 95 0 125 c0 97 -4 132 -17 155 -58 107
-149 132 -273 76 -76 -35 -78 -31 -46 61 22 62 35 111 62 228 16 73 18 107 12
243 -6 161 -3 189 35 280 13 33 14 49 4 105 -12 70 -9 91 7 49 13 -34 28 -41
39 -20 16 31 -19 303 -39 303 -5 0 -9 7 -9 15 0 8 -4 15 -9 15 -5 0 -12 8 -15
17 -6 16 -6 16 12 0 10 -9 26 -17 35 -17z m-3439 -447 c-6 -32 -5 -35 11 -29
14 5 16 3 10 -11 -13 -30 -18 -83 -8 -83 6 0 16 12 23 28 l13 27 9 -35 c10
-39 21 -81 40 -152 7 -27 16 -48 20 -48 5 0 8 -7 8 -16 0 -9 7 -22 17 -29 12
-9 16 -29 17 -77 1 -37 5 -64 10 -60 5 3 6 0 2 -7 -4 -6 -2 -19 5 -27 7 -9 14
-23 15 -32 1 -10 7 -42 14 -72 7 -30 14 -64 15 -75 2 -22 18 -62 46 -116 32
-63 27 -73 -56 -109 -82 -36 -93 -51 -81 -115 5 -23 24 -54 57 -88 43 -45 54
-65 80 -150 29 -92 30 -100 16 -135 -11 -28 -12 -53 -6 -106 10 -77 33 -166
56 -209 18 -35 82 -107 95 -107 6 0 7 53 3 144 l-8 144 39 -9 c22 -5 52 -11
68 -14 22 -5 27 -10 23 -25 -7 -26 9 -25 52 1 18 11 43 18 55 16 20 -3 19 -4
-6 -17 -29 -14 -36 -34 -18 -45 6 -4 17 -2 24 4 10 9 15 7 19 -9 7 -27 34 -26
43 2 6 19 8 20 18 6 13 -18 51 -15 102 8 17 7 54 15 81 18 52 4 93 23 93 43 0
7 10 13 23 13 12 0 35 7 51 15 15 8 34 15 42 15 17 0 97 43 104 55 5 10 9 11
37 14 7 0 12 9 11 19 -3 38 2 54 16 49 9 -4 21 5 31 19 9 15 22 23 30 20 8 -3
17 0 21 5 3 6 20 19 37 29 36 22 50 80 19 80 -10 0 -23 -5 -30 -12 -6 -6 -14
-9 -17 -6 -7 7 61 48 81 48 10 0 14 -12 14 -44 0 -25 6 -48 14 -55 21 -18 30
-62 14 -73 -11 -6 -10 -10 1 -17 12 -8 12 -12 -2 -26 -10 -9 -17 -19 -17 -22
0 -12 36 -32 56 -33 12 0 27 -7 34 -15 10 -12 7 -19 -16 -40 -15 -14 -35 -25
-45 -25 -11 0 -19 -7 -19 -15 0 -8 -3 -14 -7 -14 -19 3 -33 -2 -33 -11 0 -6
12 -9 27 -8 19 2 28 -2 31 -13 4 -19 -38 -33 -69 -24 -11 4 -30 0 -42 -8 -12
-8 -38 -18 -57 -22 -19 -4 -40 -11 -45 -16 -6 -4 -17 -4 -25 1 -8 5 -24 3 -39
-5 -14 -7 -42 -16 -61 -20 -19 -4 -41 -12 -48 -18 -7 -5 -26 -11 -42 -12 -17
-2 -37 -8 -45 -15 -14 -12 -13 -15 4 -32 13 -11 23 -38 27 -69 4 -28 13 -53
20 -56 8 -3 14 -20 14 -42 0 -42 11 -63 30 -59 9 2 14 -11 17 -41 1 -24 8 -50
14 -57 6 -8 9 -25 7 -39 -3 -13 -2 -23 1 -20 4 2 12 0 19 -4 17 -10 3 -51 -19
-52 -11 -1 -25 -2 -31 -3 -7 -1 -15 -4 -18 -8 -3 -4 -36 -8 -73 -10 -42 -2
-68 -7 -72 -15 -2 -7 -15 -13 -28 -13 -37 0 -64 -71 -31 -84 24 -9 34 -7 34 7
0 16 47 40 61 31 5 -3 7 -9 4 -14 -3 -4 4 -10 16 -13 18 -5 20 -13 19 -69 -1
-35 2 -90 6 -124 6 -56 4 -62 -17 -80 -31 -25 -38 -74 -11 -74 29 0 37 -43 28
-154 -2 -26 2 -62 9 -80 7 -17 16 -58 20 -91 10 -79 20 -98 45 -85 24 13 43
13 35 0 -11 -17 25 -23 53 -9 45 22 47 23 34 7 -17 -21 0 -32 33 -24 19 5 23
3 19 -9 -5 -11 12 -23 62 -46 112 -50 115 -52 129 -79 8 -15 20 -32 28 -39 8
-6 34 -49 57 -95 34 -69 40 -88 31 -104 -6 -12 -11 -32 -11 -45 0 -14 -7 -27
-15 -31 -8 -3 -15 -13 -15 -22 0 -36 -13 -2 -39 99 -14 57 -30 106 -36 108
-11 4 -46 -63 -64 -122 -16 -52 -14 -118 4 -125 10 -4 15 -20 15 -50 0 -31 4
-44 14 -44 16 0 38 -31 56 -80 10 -29 23 -40 76 -64 67 -30 78 -39 88 -71 5
-18 1 -20 -48 -20 -30 0 -53 2 -50 4 11 11 -23 31 -54 31 -19 0 -43 7 -52 15
-9 8 -26 16 -39 17 -21 3 -30 -11 -85 -132 -58 -128 -129 -250 -147 -250 -4 0
-10 -8 -13 -18 -4 -10 -31 -44 -61 -75 -30 -31 -50 -59 -45 -62 5 -3 15 3 22
15 7 11 23 20 35 20 14 0 23 6 23 15 0 16 26 21 32 6 2 -5 21 3 43 18 23 15
47 28 56 28 8 0 27 3 42 7 25 6 27 4 27 -23 0 -17 7 -34 16 -39 11 -6 22 -45
35 -128 11 -65 30 -146 42 -179 12 -33 20 -64 18 -70 -2 -5 -4 -21 -6 -35 -1
-14 -5 -32 -8 -40 -5 -13 -46 -149 -81 -270 -8 -25 -23 -61 -34 -80 -24 -40
-46 -98 -68 -180 -25 -89 -71 -279 -89 -365 -10 -44 -21 -93 -26 -110 -8 -29
-39 -202 -60 -330 -16 -104 -17 -107 -38 -95 -12 6 -22 26 -26 50 -4 22 -10
40 -15 40 -4 0 -10 10 -14 23 -8 32 -65 51 -86 29 -10 -12 -11 -17 -2 -20 15
-5 16 -32 2 -32 -7 0 -10 -90 -8 -275 3 -309 2 -312 -57 -281 -19 11 -35 23
-35 27 0 4 -9 10 -19 14 -11 3 -22 19 -26 35 -4 17 -10 30 -15 30 -4 0 -11 19
-15 43 -10 62 -37 139 -57 161 -10 11 -18 23 -18 28 0 15 -65 7 -85 -10 -27
-23 -76 -100 -73 -115 7 -41 -38 -78 -76 -64 -19 7 -19 11 -56 376 -17 168
-33 307 -35 310 -3 2 -5 -3 -5 -13 0 -9 -4 -15 -9 -11 -5 3 -12 1 -16 -5 -4
-6 -10 -8 -15 -5 -5 3 -12 -11 -15 -32 -8 -45 -25 -84 -35 -78 -4 2 -7 -10 -8
-28 0 -17 -6 -33 -11 -35 -6 -2 -11 -12 -11 -23 0 -10 -4 -19 -9 -19 -5 0 -13
-14 -16 -31 -4 -18 -18 -53 -31 -79 -13 -26 -24 -58 -24 -69 0 -12 -11 -33
-25 -46 -24 -25 -45 -32 -45 -17 0 4 -24 34 -52 65 -29 31 -62 69 -74 84 -23
30 -83 154 -105 216 -7 20 -16 37 -20 37 -19 0 -39 -13 -39 -26 0 -7 -8 -18
-19 -23 -10 -6 -22 -22 -25 -36 -3 -13 -18 -32 -32 -41 -24 -17 -26 -16 -59
16 -34 33 -46 79 -27 106 4 6 52 16 107 23 58 8 150 30 219 52 119 39 132 45
216 89 35 19 61 24 115 25 49 0 79 5 96 17 16 10 59 19 109 24 125 11 244 76
276 151 17 38 18 115 3 130 -16 16 17 43 55 43 41 0 162 59 199 98 40 42 53
123 31 198 -9 31 -24 63 -33 73 -16 15 -14 19 35 74 81 87 89 135 47 259 -26
78 -28 80 -78 104 -29 13 -57 24 -63 24 -21 0 -13 12 36 60 53 51 83 107 64
119 -6 3 -15 26 -21 50 -6 26 -22 57 -43 78 -39 41 -155 119 -207 139 -20 8
-45 19 -56 24 -39 17 -122 40 -280 76 -150 35 -171 38 -330 38 -93 1 -188 -1
-210 -4 -39 -5 -39 -5 -47 35 -4 22 -7 133 -7 246 -1 231 -8 286 -51 377 -45
97 -179 291 -219 318 -54 36 -103 47 -151 33 -22 -7 -45 -18 -50 -24 -13 -15
9 -89 62 -214 45 -107 58 -204 38 -281 -7 -25 -16 -81 -20 -125 -23 -226 -74
-434 -125 -509 -14 -20 -25 -39 -25 -41 0 -12 32 -2 81 25 67 37 91 39 60 7
-14 -16 -19 -30 -15 -42 5 -13 4 -16 -4 -11 -19 12 -35 -3 -21 -20 9 -11 8
-14 -4 -14 -8 0 -18 -11 -21 -25 -4 -15 -14 -25 -25 -25 -13 0 -18 -8 -19 -30
0 -17 -10 -46 -21 -64 -12 -18 -21 -43 -21 -54 0 -15 -5 -19 -19 -15 -15 4
-19 -3 -25 -39 -3 -24 -9 -58 -12 -75 -5 -25 -3 -33 8 -33 8 0 23 -9 33 -20
10 -11 21 -17 25 -15 11 7 21 -22 14 -39 -3 -8 -19 -18 -35 -21 -30 -7 -38
-20 -16 -28 6 -3 3 -6 -8 -6 -18 -1 -55 -60 -55 -88 0 -10 -25 -14 -81 -14
-19 0 -29 -6 -33 -22 -4 -17 -8 -19 -18 -9 -13 13 -29 16 -26 5 4 -19 -16 -63
-28 -63 -7 0 -21 -14 -30 -31 -11 -22 -21 -30 -34 -26 -20 5 -45 -7 -45 -21 0
-6 -21 -31 -47 -57 -33 -33 -52 -45 -65 -41 -24 9 -160 253 -232 419 -182 416
-276 765 -323 1207 -16 154 -16 574 0 730 40 371 119 701 248 1027 150 379
324 684 558 977 152 190 411 460 491 512 16 10 38 27 47 37 10 9 23 17 29 17
5 0 7 4 4 10 -3 5 5 15 19 22 14 6 26 14 26 18 0 13 55 63 85 77 17 7 53 32
80 53 55 44 66 47 89 24 19 -18 36 -10 36 17 0 10 5 19 10 19 7 0 8 -13 4 -37z
m682 17 c17 0 25 -7 30 -25 3 -14 9 -25 13 -25 9 0 34 -88 34 -115 -1 -11 -4
-28 -8 -37 -5 -13 -2 -18 9 -18 9 0 16 -7 16 -15 0 -8 -9 -15 -20 -15 -21 0
-28 -24 -10 -35 15 -10 12 -30 -9 -54 -11 -13 -18 -28 -15 -35 3 -7 -2 -19
-11 -26 -13 -11 -22 -11 -50 3 l-35 17 0 -35 c0 -19 5 -35 10 -35 6 0 10 5 10
11 0 5 5 7 10 4 15 -9 12 -72 -4 -98 -7 -12 -19 -48 -26 -79 -7 -32 -21 -65
-32 -74 -10 -10 -18 -27 -18 -38 0 -59 -73 -117 -168 -132 l-37 -6 0 119 c0
65 -4 163 -9 218 -8 94 -7 107 22 215 20 77 44 139 71 187 45 76 79 115 69 78
-3 -11 1 -26 8 -33 10 -9 22 -2 55 38 26 31 48 49 57 45 7 -3 24 -5 38 -5z
m-2101 -807 c109 -68 125 -81 125 -102 0 -37 -70 -141 -95 -141 -16 0 -187
109 -207 132 -23 27 -23 70 2 117 34 68 59 67 175 -6z m7158 -156 c36 -62 69
-119 72 -128 5 -13 -17 -30 -90 -73 -53 -31 -102 -56 -109 -56 -7 0 -21 9 -31
20 -9 10 -21 18 -26 17 -4 -1 -26 28 -47 64 -28 47 -39 78 -40 112 l-2 46 92
55 c51 30 98 55 105 56 6 0 40 -51 76 -113z m-5233 75 c0 -5 -3 -12 -7 -16
-13 -13 -10 -78 4 -83 17 -6 17 -23 1 -23 -9 0 -13 -17 -14 -50 -1 -65 -20
-85 -78 -85 -30 0 -57 9 -92 30 -43 27 -49 35 -52 68 -3 32 2 43 31 72 46 46
64 45 77 -5 5 -22 15 -58 20 -80 11 -40 30 -64 30 -36 0 8 -5 49 -11 91 -13
85 -7 99 45 114 41 12 46 12 46 3z m-30 -332 c0 -5 -4 -10 -10 -10 -5 0 -10 5
-10 10 0 6 5 10 10 10 6 0 10 -4 10 -10z m-152 -12 c6 -6 34 -11 62 -9 27 1
50 -2 50 -7 0 -5 19 -12 43 -14 24 -3 56 -13 71 -23 25 -17 27 -22 19 -54 -4
-20 -8 -74 -8 -120 l0 -83 -49 6 c-63 7 -75 19 -74 69 1 23 0 72 -2 109 -3 61
-5 66 -22 57 -10 -6 -16 -14 -13 -19 3 -5 -4 -14 -15 -20 -11 -6 -20 -17 -20
-25 0 -36 -21 -20 -40 32 -37 98 -37 136 -2 101z m-1886 -107 c5 -36 -7 -87
-26 -116 -21 -32 -74 -34 -101 -5 -23 26 -31 111 -16 167 l12 42 64 -31 c51
-25 65 -37 67 -57z m2605 -107 c-3 -3 -12 -4 -19 -1 -8 3 -5 6 6 6 11 1 17 -2
13 -5z m-47 -8 c0 -2 -7 -7 -16 -10 -8 -3 -12 -2 -9 4 6 10 25 14 25 6z m4853
-40 c33 -14 72 -52 101 -97 l16 -26 -67 -26 c-62 -25 -69 -26 -90 -11 -63 41
-82 136 -33 161 31 16 34 16 73 -1z m-53 -187 c0 -14 -17 -10 -23 5 -4 10 -1
13 9 9 7 -3 14 -9 14 -14z m-4484 -77 c-22 -5 -30 3 -21 18 5 8 11 7 22 -2 15
-12 14 -13 -1 -16z m-86 -6 c0 -13 -7 -26 -15 -30 -11 -4 -15 2 -15 24 0 20 5
30 15 30 9 0 15 -9 15 -24z m190 14 c8 -5 12 -12 9 -15 -8 -8 -39 5 -39 16 0
11 11 11 30 -1z m-257 -36 c28 -10 19 -32 -19 -44 -38 -13 -55 -7 -36 12 7 7
12 20 12 31 0 11 5 16 13 13 6 -3 20 -9 30 -12z m5057 -139 c15 -16 24 -41 28
-75 4 -49 3 -52 -35 -89 -48 -45 -112 -66 -185 -59 -71 7 -108 47 -108 117 0
27 6 53 13 59 12 10 219 70 248 71 8 1 26 -10 39 -24z m-8146 -31 c26 -9 63
-32 82 -51 29 -28 34 -41 34 -79 0 -39 -5 -51 -34 -80 -31 -31 -39 -34 -93
-34 -123 0 -216 60 -216 140 0 46 25 87 64 107 34 18 107 16 163 -3z m7826
-13 c0 -6 -4 -13 -10 -16 -5 -3 -10 1 -10 9 0 9 5 16 10 16 6 0 10 -4 10 -9z
m-7804 -597 c4 -34 3 -59 -3 -63 -6 -3 -15 -16 -22 -28 -9 -17 -20 -23 -44
-22 -54 2 -76 12 -101 49 l-24 35 77 42 c102 57 108 56 117 -13z m7948 -133
c3 -4 -1 -17 -9 -27 -14 -18 -14 -18 -15 9 0 26 13 36 24 18z m321 -11 c10
-11 20 -41 23 -68 4 -44 1 -52 -28 -85 -36 -41 -79 -57 -158 -57 -93 0 -152
49 -152 125 0 71 19 84 130 94 154 13 165 13 185 -9z m-2635 -89 c0 -11 -5
-23 -10 -26 -6 -4 -17 -21 -24 -38 l-13 -32 -8 36 c-4 22 -2 45 4 58 15 27 51
28 51 2z m-5880 -292 l0 -121 -31 6 c-71 14 -117 75 -106 142 7 45 30 71 71
83 68 20 66 23 66 -110z m5583 64 c-4 -10 -21 -32 -37 -49 -17 -17 -39 -42
-48 -55 l-17 -24 -1 24 c0 17 16 39 53 72 28 27 53 49 54 49 1 0 -1 -8 -4 -17z
m-132 -161 c-7 -20 -29 -54 -48 -74 -22 -22 -35 -46 -35 -62 0 -23 -83 -137
-146 -201 -11 -12 -26 -34 -34 -50 -7 -16 -23 -39 -35 -52 -13 -12 -23 -30
-23 -40 -1 -10 -14 -34 -30 -53 -17 -19 -30 -42 -30 -52 0 -9 -9 -23 -20 -31
-11 -7 -25 -27 -32 -43 -21 -46 -70 -127 -90 -147 -10 -10 -21 -30 -24 -45 -4
-15 -18 -40 -31 -55 -12 -16 -23 -35 -23 -43 0 -8 -11 -26 -24 -39 -13 -13
-27 -36 -31 -52 -3 -15 -15 -36 -26 -46 -10 -10 -22 -30 -25 -45 -4 -15 -15
-34 -24 -42 -24 -20 -90 -144 -90 -169 0 -11 -6 -24 -13 -28 -12 -7 -32 -40
-94 -153 -13 -25 -35 -76 -49 -115 -13 -38 -47 -105 -74 -148 -28 -43 -50 -81
-50 -84 0 -3 -11 -20 -24 -37 -13 -17 -33 -51 -46 -76 -13 -25 -28 -49 -35
-55 -7 -5 -16 -23 -19 -38 -4 -15 -15 -35 -26 -45 -11 -9 -20 -24 -20 -34 0
-27 -22 -68 -36 -68 -7 0 -15 -8 -17 -17 -3 -10 -10 -39 -17 -65 -7 -26 -16
-46 -20 -43 -4 3 -10 -5 -14 -18 -8 -32 -7 -47 4 -47 6 0 10 6 10 13 0 7 10
28 23 47 13 19 31 55 41 80 10 25 21 47 25 50 4 3 15 23 25 44 11 22 30 51 43
65 14 14 31 40 39 58 9 22 19 31 29 27 9 -4 15 0 15 8 0 19 39 51 64 51 17 0
26 13 46 63 13 35 27 64 30 64 3 0 12 17 19 38 8 20 21 48 31 62 19 27 60 152
60 181 0 28 22 69 36 69 18 0 43 39 64 102 32 97 43 117 69 124 15 3 20 9 14
11 -17 6 -16 40 1 46 7 3 17 22 20 41 4 20 11 34 16 31 13 -8 33 34 32 67 0
22 7 34 34 51 18 12 34 27 34 34 0 7 12 18 28 25 15 7 33 28 41 46 20 45 37
34 33 -22 -2 -36 0 -46 12 -46 10 0 16 -9 16 -25 0 -14 4 -25 9 -25 20 0 41
13 41 26 0 7 15 16 34 20 20 3 37 13 39 23 4 12 5 11 6 -5 1 -24 -20 -57 -34
-52 -6 2 -11 0 -12 -5 -11 -34 -37 -85 -52 -102 -10 -11 -24 -35 -32 -53 -8
-18 -22 -35 -31 -38 -9 -3 -24 -28 -33 -57 -9 -29 -24 -59 -33 -67 -10 -8 -24
-28 -32 -45 -8 -16 -27 -45 -42 -63 -16 -18 -28 -39 -28 -47 0 -7 -11 -27 -25
-43 -14 -17 -25 -36 -25 -44 0 -8 -13 -35 -30 -59 -16 -24 -30 -49 -30 -55 0
-6 -11 -20 -25 -32 -14 -12 -25 -29 -25 -37 0 -9 -16 -32 -36 -52 -20 -20 -45
-56 -56 -79 -10 -24 -22 -46 -27 -49 -16 -9 -70 -132 -86 -191 -20 -78 -20
-174 0 -174 23 0 18 -36 -8 -57 -33 -25 -34 -28 -18 -46 10 -13 11 -36 6 -97
-4 -44 -10 -80 -14 -80 -3 0 -7 -11 -7 -25 -1 -14 2 -25 7 -25 5 0 9 9 9 20 0
33 17 22 24 -15 8 -43 1 -58 -25 -50 -11 4 -19 2 -19 -5 0 -24 -24 -3 -35 30
l-12 34 -12 -34 -13 -35 -10 25 c-8 19 -12 21 -16 10 -7 -21 -24 -30 -43 -25
-13 4 -18 -4 -23 -35 -3 -22 -10 -40 -15 -40 -5 0 -11 -10 -13 -22 -2 -13 -9
-24 -15 -24 -30 -3 -33 -4 -33 -13 0 -8 72 -25 109 -26 16 0 27 50 12 59 -9 6
1 72 13 83 7 7 10 -50 6 -114 -2 -47 2 -50 60 -56 34 -4 63 -14 168 -63 29
-13 57 -24 62 -24 5 0 25 -9 45 -21 25 -15 46 -20 73 -16 54 7 254 72 246 80
-4 4 -35 7 -69 7 -33 0 -87 7 -118 15 -32 8 -66 15 -76 15 -11 0 -29 8 -41 18
-20 17 -21 21 -9 43 7 13 14 41 15 62 1 21 7 43 12 50 5 7 12 32 16 57 13 107
19 136 28 147 12 15 1 150 -13 159 -12 7 -11 151 1 194 6 19 17 72 25 118 8
45 21 89 30 98 8 8 15 19 15 23 0 5 23 37 50 71 28 34 50 66 50 71 0 4 6 14
13 21 26 26 87 126 87 142 0 9 5 16 10 16 6 0 19 19 30 43 11 23 24 49 28 57
23 40 43 78 56 106 8 17 22 36 30 44 9 7 16 18 16 25 0 7 16 30 36 51 37 40
127 171 159 233 57 110 193 253 372 389 45 34 84 66 88 71 8 13 94 71 105 71
5 0 24 9 42 20 18 11 44 20 57 20 20 0 22 -4 16 -22 -21 -69 -15 -171 15 -243
33 -83 45 -106 61 -121 11 -10 19 -22 20 -28 1 -29 111 -86 165 -86 18 0 24
-6 24 -21 0 -50 32 -128 68 -164 55 -56 85 -65 212 -65 l110 0 29 -47 c27 -43
34 -48 68 -48 21 0 41 4 46 10 11 14 47 -32 47 -61 0 -13 4 -24 9 -24 5 0 14
-15 21 -32 6 -18 18 -49 26 -68 8 -19 17 -48 20 -65 2 -16 11 -43 18 -60 8
-16 21 -55 29 -85 8 -30 29 -99 46 -152 17 -54 31 -107 31 -119 0 -11 6 -35
14 -52 32 -74 43 -335 15 -353 -5 -3 -9 -1 -9 5 0 6 -6 8 -14 5 -11 -4 -13 3
-11 28 2 23 -5 41 -20 58 -12 14 -30 52 -40 85 -9 33 -21 70 -26 83 -5 13 -9
32 -9 42 0 11 -4 20 -8 20 -5 0 -15 19 -22 43 -50 165 -62 196 -76 190 -11 -4
-13 2 -8 26 5 24 3 31 -8 31 -15 0 -23 23 -50 140 -17 74 -16 73 -30 58 -8 -8
-14 -48 -16 -100 -2 -75 0 -88 14 -88 10 0 13 -6 10 -18 -12 -36 -15 -122 -5
-122 6 0 7 -5 3 -12 -4 -6 -7 -79 -6 -161 1 -117 -1 -153 -13 -170 -8 -12 -15
-36 -15 -53 0 -27 -4 -33 -27 -37 -34 -6 -43 -1 -43 25 0 16 -5 19 -25 16 -20
-4 -26 -1 -31 19 -4 15 -12 22 -20 19 -9 -3 -14 1 -14 11 0 16 -1 16 -16 1
-15 -15 -19 -14 -49 3 -29 17 -34 18 -45 4 -9 -11 -33 -15 -90 -15 l-77 0 -9
-42 c-7 -33 -14 -44 -30 -46 -12 -2 -27 -14 -34 -28 -14 -26 -25 -30 -36 -13
-4 7 -16 2 -33 -14 -14 -13 -41 -30 -58 -38 -18 -8 -33 -18 -33 -22 0 -4 -13
-13 -29 -18 -25 -9 -30 -17 -36 -59 -4 -28 -4 -67 -1 -87 3 -21 8 -76 11 -122
4 -79 3 -83 -16 -78 -17 4 -18 3 -8 -9 14 -17 9 -17 -28 -3 -47 18 -132 39
-161 39 -15 0 -76 -13 -137 -29 -60 -16 -146 -37 -190 -46 -44 -10 -93 -25
-110 -34 -50 -28 -164 -61 -280 -81 -60 -10 -146 -26 -190 -36 -44 -9 -104
-19 -132 -21 -29 -3 -53 -7 -53 -9 0 -8 40 -44 49 -44 5 0 19 -13 31 -30 12
-16 28 -30 36 -30 18 0 18 8 -1 43 -13 25 -13 29 3 35 34 14 156 6 191 -12 28
-15 35 -15 42 -4 7 10 9 9 9 -4 0 -10 7 -18 15 -18 8 0 15 -4 15 -10 0 -5 11
-10 25 -10 14 0 25 -6 25 -13 0 -7 12 -14 26 -15 37 -3 46 -11 38 -34 -5 -17
-3 -18 14 -9 26 14 45 14 37 1 -3 -6 1 -10 11 -10 9 0 32 -13 50 -30 26 -23
40 -28 62 -24 16 3 47 1 71 -6 35 -9 40 -14 31 -26 -13 -15 -55 -20 -46 -5 3
4 -5 6 -17 4 -12 -2 -39 5 -60 15 -20 11 -40 16 -43 11 -11 -18 -41 -8 -53 18
-12 26 -14 26 -25 10 -16 -21 -45 -21 -128 -2 -35 8 -94 17 -131 21 -47 5 -72
12 -80 24 -9 12 -34 19 -87 24 -41 3 -101 13 -135 20 -33 8 -82 17 -108 21
-54 7 -100 41 -76 56 26 16 2 19 -33 4 -20 -8 -44 -13 -54 -11 -42 8 -224 58
-294 81 -41 13 -86 26 -100 29 -14 3 -58 14 -99 26 -41 11 -92 20 -113 20
l-39 0 7 38 c10 55 22 72 50 72 29 0 47 35 71 135 8 33 21 70 29 83 16 25 54
136 54 159 0 15 70 170 96 213 8 14 22 41 30 60 8 19 19 42 25 50 5 8 23 43
39 78 17 34 35 62 40 62 6 0 10 6 10 14 0 18 51 96 62 96 4 0 8 5 8 10 0 10
22 48 78 132 13 20 28 52 32 70 16 62 52 153 66 164 18 15 18 24 -1 24 -20 0
-20 51 0 105 l14 40 1 -44 c0 -37 2 -42 15 -31 8 6 18 9 23 6 9 -6 62 85 62
108 0 8 6 16 14 19 7 3 23 24 35 47 12 22 30 51 42 63 11 12 22 32 25 44 4 13
10 23 15 23 9 0 49 72 49 88 0 5 -22 12 -48 15 -48 6 -118 34 -197 79 -22 13
-77 60 -121 106 -45 45 -86 82 -93 82 -6 0 -11 5 -11 12 0 6 -18 35 -41 65
l-40 54 -57 -31 c-93 -49 -157 -102 -160 -132 -2 -15 -10 -32 -18 -38 -11 -10
-14 -9 -14 9 0 47 27 88 81 121 30 18 81 58 115 89 33 31 86 74 117 95 32 22
78 59 102 83 51 48 60 52 52 23 -3 -12 0 -20 8 -20 15 0 27 38 14 46 -13 8
-11 24 2 24 7 0 18 8 25 18 13 16 13 16 14 0 0 -10 -4 -18 -10 -18 -5 0 -10
-16 -10 -35 0 -19 -4 -35 -9 -35 -12 0 -22 -30 -15 -42 5 -7 11 -6 18 3 12 15
72 39 99 39 20 0 24 46 5 53 -9 3 -7 9 7 20 25 19 39 13 56 -25 17 -38 39 -48
39 -19 0 18 6 21 45 21 l45 0 0 -45 0 -45 100 0 c82 0 100 3 100 15 0 10 11
15 35 15 24 0 35 5 35 15 0 8 7 15 15 15 9 0 14 8 12 23 -2 18 2 21 21 19 27
-4 29 9 2 28 -11 8 -20 25 -20 37 0 24 24 34 72 30 24 -2 26 -5 21 -32 l-5
-30 21 25 c11 14 21 28 21 33 0 4 11 5 24 3 25 -4 33 7 51 72 4 13 9 21 13 18
3 -4 11 7 18 24 7 16 24 35 38 41 14 7 37 35 52 66 19 36 31 50 38 43 7 -7 6
-22 -3 -48z m2769 -214 c0 -5 -9 -8 -20 -8 -16 0 -20 7 -20 38 l0 37 20 -30
c11 -16 20 -33 20 -37z m-2462 -100 c2 -9 -10 -24 -26 -33 -16 -10 -37 -36
-47 -59 -10 -22 -38 -64 -61 -93 -24 -28 -44 -56 -44 -61 0 -5 -16 -27 -35
-48 -19 -21 -41 -53 -47 -71 -7 -18 -18 -33 -25 -33 -7 0 -13 -4 -13 -9 0 -5
-17 -36 -38 -68 -21 -32 -46 -74 -55 -93 -25 -50 -39 -72 -61 -90 -21 -19 -56
-104 -56 -138 0 -31 -17 -62 -34 -62 -14 0 -76 -84 -76 -103 0 -5 -9 -21 -19
-36 -11 -15 -29 -51 -40 -79 -24 -62 -70 -141 -116 -202 -18 -25 -34 -49 -35
-55 -1 -18 -38 -60 -46 -52 -4 4 1 15 10 26 12 13 14 20 5 23 -8 3 0 36 25
111 23 66 34 116 30 130 -4 18 1 32 19 51 14 15 32 42 41 60 8 17 24 40 36 51
11 10 20 26 20 36 0 10 8 25 17 35 19 19 43 61 43 76 0 5 11 22 24 36 14 15
40 46 58 69 18 23 65 80 103 125 65 76 87 106 154 207 13 20 28 38 33 39 4 2
8 9 8 16 0 7 22 42 48 77 26 35 63 88 81 117 18 28 39 52 45 52 7 0 20 16 29
36 17 36 39 41 45 12z m-578 -225 c0 -20 -3 -24 -11 -16 -7 7 -9 19 -6 27 10
24 17 19 17 -11z m30 -174 c-13 -44 -20 -48 -20 -12 0 30 6 43 21 43 4 0 4
-14 -1 -31z m-33 -11 c-3 -8 -6 -5 -6 6 -1 11 2 17 5 13 3 -3 4 -12 1 -19z
m70 0 c-3 -8 -6 -5 -6 6 -1 11 2 17 5 13 3 -3 4 -12 1 -19z m-1187 -12 c0 -3
-4 -8 -10 -11 -5 -3 -10 -1 -10 4 0 6 5 11 10 11 6 0 10 -2 10 -4z m1170 -93
c-6 -37 -12 -76 -13 -87 -2 -10 -11 -22 -20 -27 -13 -8 -18 -4 -23 16 -4 15
-1 37 5 49 7 12 11 26 10 32 -3 19 2 32 21 54 11 13 20 30 21 39 0 9 3 11 5 4
3 -6 0 -42 -6 -80z m-64 40 c-11 -11 -19 6 -11 24 8 17 8 17 12 0 3 -10 2 -21
-1 -24z m2983 -239 c13 -9 29 -32 37 -50 18 -42 19 -143 2 -149 -7 -3 -40 4
-73 14 -50 16 -61 23 -67 47 -12 42 0 105 24 131 25 27 45 29 77 7z m-3543
-41 c-11 -11 -19 6 -11 24 8 17 8 17 12 0 3 -10 2 -21 -1 -24z m-211 -40 c-18
-51 -27 -153 -15 -153 4 0 10 10 13 23 4 12 22 39 42 60 19 20 35 41 35 46 0
5 14 14 30 21 17 7 30 16 30 21 0 5 11 9 25 9 24 0 32 -10 19 -23 -4 -3 -7
-24 -8 -47 -2 -43 -37 -87 -58 -74 -7 4 -8 3 -4 -4 4 -7 3 -12 -1 -12 -11 0
-49 -90 -45 -107 2 -7 -6 -13 -18 -13 -20 0 -26 -21 -21 -78 1 -12 -2 -21 -8
-20 -5 2 -20 -13 -33 -32 -13 -19 -32 -37 -43 -40 -11 -3 -32 -13 -47 -24 -30
-20 -78 -16 -78 7 0 7 13 27 30 45 24 26 28 36 19 50 -15 25 4 212 23 223 8 4
13 22 13 43 -1 20 2 36 7 36 4 0 8 5 8 10 0 6 -7 10 -15 10 -19 0 -19 9 2 32
19 21 39 23 47 6 3 -9 15 -2 33 19 34 40 39 30 18 -34z m-645 26 c0 -6 -4 -7
-10 -4 -5 3 -10 11 -10 16 0 6 5 7 10 4 6 -3 10 -11 10 -16z m4269 -86 c1 -7
-6 -13 -14 -13 -17 0 -18 4 -8 39 6 23 7 23 14 5 4 -10 8 -25 8 -31z m-6029
-56 c0 -13 -5 -28 -11 -34 -6 -6 -16 -21 -23 -34 -14 -29 -45 -34 -47 -8 -1
10 -2 24 -3 30 -2 17 47 67 67 68 11 1 17 -6 17 -22z m5117 -34 c21 -10 54
-29 73 -44 158 -120 286 -179 393 -182 61 -2 81 -17 22 -17 -38 0 -40 -2 -25
-30 7 -13 7 -21 0 -25 -5 -3 -10 -20 -10 -36 0 -17 -5 -39 -11 -51 -6 -11 -12
-54 -14 -96 -2 -43 -6 -88 -9 -101 -8 -33 -37 -64 -49 -52 -7 7 -15 4 -23 -7
-12 -15 -13 -15 -14 8 0 18 -3 21 -9 11 -12 -18 -31 -5 -31 22 -1 19 -2 20
-13 6 -7 -9 -20 -15 -29 -13 -9 1 -20 -5 -23 -14 -6 -15 -8 -15 -15 3 -7 17
-10 15 -27 -22 -10 -24 -20 -43 -23 -43 -7 0 -30 56 -41 103 -5 20 -13 54 -18
75 -5 20 -14 51 -20 67 -7 17 -38 118 -70 225 -33 107 -62 203 -66 213 -9 22
4 22 52 0z m-3392 -68 c-5 -54 -20 -105 -30 -105 -2 0 -2 19 1 43 3 23 7 56 9
72 4 45 4 45 15 45 6 0 8 -21 5 -55z m4176 -132 c-12 -20 -14 -14 -5 12 4 9 9
14 11 11 3 -2 0 -13 -6 -23z m153 -74 c85 -38 116 -56 120 -72 11 -43 6 -93
-15 -126 -19 -31 -23 -33 -62 -29 -23 3 -87 27 -142 54 -92 45 -100 51 -98 77
1 17 -3 27 -12 27 -11 0 -9 11 7 51 14 34 24 46 29 37 6 -10 13 -7 29 10 11
12 23 22 25 22 3 0 56 -23 119 -51z m-3851 -70 c-25 -26 -38 -11 -16 20 11 16
18 20 26 12 8 -8 5 -17 -10 -32z m591 -111 c-3 -29 -17 -97 -30 -151 -13 -54
-24 -108 -24 -121 0 -13 -7 -30 -17 -37 -15 -13 -16 -5 -10 104 5 99 11 128
33 175 45 97 57 104 48 30z m-274 -950 c0 -16 -3 -19 -11 -11 -6 6 -8 16 -5
22 11 17 16 13 16 -11z m10 -48 c0 -5 -4 -10 -10 -10 -5 0 -10 5 -10 10 0 6 5
10 10 10 6 0 10 -4 10 -10z m97 -12 c-3 -8 -6 -5 -6 6 -1 11 2 17 5 13 3 -3 4
-12 1 -19z m-337 -79 c0 -5 -7 -9 -15 -9 -15 0 -20 12 -9 23 8 8 24 -1 24 -14z
m95 1 c3 -5 1 -10 -4 -10 -6 0 -11 5 -11 10 0 6 2 10 4 10 3 0 8 -4 11 -10z
m1424 -30 c-42 -4 -105 -17 -140 -28 -60 -19 -170 -43 -193 -41 -28 1 88 35
249 72 11 3 52 5 90 4 l70 0 -76 -7z m-1984 -232 c17 -6 35 -14 40 -18 6 -4
26 -11 45 -15 19 -4 71 -17 115 -30 44 -12 118 -32 165 -44 47 -12 135 -38
195 -56 61 -18 136 -41 167 -50 65 -18 73 -26 58 -55 -13 -25 -35 -25 -175 0
-107 19 -191 40 -500 125 -27 8 -88 20 -133 27 l-84 13 7 40 c8 54 32 89 53
80 9 -4 31 -12 47 -17z m1780 -216 c-3 -3 -11 0 -18 7 -9 10 -8 11 6 5 10 -3
15 -9 12 -12z m25 -28 c0 -2 -9 -4 -21 -4 -11 0 -18 4 -14 10 5 8 35 3 35 -6z
m-1784 -53 c98 -32 204 -64 234 -71 30 -8 59 -17 64 -22 6 -4 18 -8 28 -8 10
0 31 -8 48 -19 l31 -19 -28 -20 c-26 -19 -36 -20 -89 -11 -32 5 -68 10 -79 9
-11 0 -40 7 -65 15 -25 7 -90 21 -145 30 -55 9 -120 22 -145 30 -25 9 -53 15
-64 15 -16 0 -18 6 -13 40 4 35 30 90 41 90 2 0 84 -26 182 -59z m1098 -2 c22
-6 57 -14 76 -19 212 -51 302 -84 293 -106 -3 -8 -8 -12 -12 -10 -4 3 -13 1
-21 -5 -11 -6 -8 -9 13 -9 18 0 26 -4 21 -11 -9 -15 -117 -4 -214 22 -41 11
-82 21 -90 23 -8 2 -22 6 -30 9 -8 3 -48 16 -87 28 -40 13 -73 27 -73 31 0 4
-7 8 -15 8 -8 0 -15 5 -15 10 0 6 8 10 19 10 10 0 24 7 31 15 15 18 47 19 104
4z m1150 -105 c19 -18 30 -59 21 -73 -11 -18 -43 -12 -59 11 -19 27 -21 64 -3
71 20 9 25 8 41 -9z m-744 -24 c0 -5 -7 -10 -16 -10 -8 0 -12 5 -9 10 3 6 10
10 16 10 5 0 9 -4 9 -10z m618 -65 c18 -39 15 -55 -11 -55 -29 0 -47 18 -47
45 0 43 40 49 58 10z m-1471 9 c-3 -3 -12 -4 -19 -1 -8 3 -5 6 6 6 11 1 17 -2
13 -5z m93 -28 c26 -8 46 -20 48 -30 2 -9 -1 -16 -7 -16 -6 0 -11 7 -11 15 0
17 -9 19 -29 6 -11 -7 -10 -11 5 -20 15 -8 16 -11 4 -12 -21 -2 -51 1 -78 7
-29 6 -19 24 14 24 26 0 31 9 12 28 -15 15 -13 15 42 -2z m185 -36 c15 -6 23
-15 20 -21 -4 -6 -14 -8 -22 -5 -11 4 -13 2 -9 -9 6 -16 2 -18 -31 -9 -13 4
-23 13 -23 20 0 8 -4 14 -10 14 -5 0 -10 5 -10 10 0 13 51 13 85 0z m-65 -60
c0 -5 -2 -10 -4 -10 -3 0 -8 5 -11 10 -3 6 -1 10 4 10 6 0 11 -4 11 -10z
m-1736 -56 c28 -11 13 -94 -17 -94 -31 1 -39 16 -27 59 11 42 16 46 44 35z
m2541 -49 c0 -30 -39 -27 -43 3 -3 20 0 23 20 20 15 -2 23 -10 23 -23z m-2268
-11 c-3 -3 -12 -4 -19 -1 -8 3 -5 6 6 6 11 1 17 -2 13 -5z m213 -44 c10 0 11
-3 4 -10 -7 -7 -19 -8 -37 -1 -33 13 -36 26 -4 17 12 -3 29 -6 37 -6z m130
-30 c-9 -6 -10 -10 -3 -10 15 0 5 -71 -11 -82 -24 -16 -36 -7 -36 27 0 44 19
75 45 75 17 0 17 -2 5 -10z m127 -16 c-3 -3 -12 -4 -19 -1 -8 3 -5 6 6 6 11 1
17 -2 13 -5z m1170 -24 c18 -35 16 -105 -3 -120 -34 -29 -76 60 -60 125 9 34
45 31 63 -5z m-1443 1 c10 -16 -5 -41 -25 -41 -14 0 -19 7 -19 25 0 18 5 25
19 25 11 0 22 -4 25 -9z m301 0 c7 -12 -22 -41 -41 -41 -17 0 -18 22 -2 38 14
14 35 16 43 3z"/>
<path d="M3655 6560 c-8 -13 4 -32 16 -25 12 8 12 35 0 35 -6 0 -13 -4 -16
-10z"/>
<path d="M3705 6539 c-4 -6 -3 -15 3 -21 6 -6 11 -4 15 6 7 18 -9 31 -18 15z"/>
<path d="M4063 6433 c-23 -9 -14 -33 12 -33 18 0 25 5 25 20 0 19 -12 24 -37
13z"/>
<path d="M3981 6406 c-9 -10 -8 -15 3 -19 14 -5 36 10 36 25 0 13 -27 9 -39
-6z"/>
<path d="M3910 6374 c0 -9 7 -14 17 -12 25 5 28 28 4 28 -12 0 -21 -6 -21 -16z"/>
<path d="M3800 6360 c-10 -7 -1 -8 30 -4 56 8 64 14 19 14 -19 0 -41 -5 -49
-10z"/>
<path d="M3743 6348 c2 -7 10 -13 17 -13 7 0 15 6 18 13 2 7 -5 12 -18 12 -13
0 -20 -5 -17 -12z"/>
<path d="M3705 6340 c-3 -5 -1 -10 4 -10 6 0 11 5 11 10 0 6 -2 10 -4 10 -3 0
-8 -4 -11 -10z"/>
<path d="M3970 6285 c0 -36 -3 -45 -17 -45 -17 -1 -17 -1 -1 -14 10 -7 14 -17
10 -21 -4 -4 11 -5 33 -2 22 4 55 7 73 7 22 0 32 5 32 15 0 8 -7 15 -15 15
-11 0 -15 12 -15 45 l0 45 -50 0 -50 0 0 -45z"/>
<path d="M3745 6270 c-4 -6 -11 -8 -16 -5 -5 4 -9 -6 -9 -20 0 -18 4 -25 13
-21 6 3 20 9 30 12 21 8 23 44 3 44 -8 0 -18 -5 -21 -10z"/>
<path d="M3853 6238 c-21 -27 -23 -48 -5 -48 37 0 62 13 62 31 0 11 -4 19 -9
19 -5 0 -16 2 -24 5 -7 3 -18 0 -24 -7z"/>
<path d="M3677 6216 c-4 -10 -5 -21 -2 -24 9 -9 17 6 13 25 -3 17 -4 17 -11
-1z"/>
<path d="M3632 6186 c1 -10 8 -17 13 -17 15 1 12 24 -3 29 -9 3 -13 -2 -10
-12z"/>
<path d="M3798 6093 c-10 -2 -18 -13 -18 -22 0 -15 11 -19 67 -24 68 -5 82 0
96 36 6 15 -1 17 -61 16 -37 -1 -75 -3 -84 -6z"/>
<path d="M2245 3580 c-3 -5 -1 -10 4 -10 6 0 11 5 11 10 0 6 -2 10 -4 10 -3 0
-8 -4 -11 -10z"/>
<path d="M3050 2150 c0 -5 5 -10 10 -10 6 0 10 5 10 10 0 6 -4 10 -10 10 -5 0
-10 -4 -10 -10z"/>
<path d="M3130 2060 c0 -6 -4 -9 -9 -5 -5 3 -12 1 -16 -5 -8 -14 14 -52 28
-47 14 4 18 55 6 63 -5 3 -9 0 -9 -6z"/>
<path d="M6105 4719 c-4 -6 -5 -12 -2 -15 2 -3 7 2 10 11 7 17 1 20 -8 4z"/>
<path d="M6057 4713 c-10 -9 -9 -23 2 -23 5 0 11 7 15 15 5 15 -5 20 -17 8z"/>
<path d="M6006 4643 c10 -40 14 -41 14 -5 0 18 -5 32 -10 32 -6 0 -8 -11 -4
-27z"/>
<path d="M5944 4613 c3 -8 6 -17 6 -19 0 -2 7 -4 15 -4 23 0 18 27 -6 33 -15
4 -19 2 -15 -10z"/>
<path d="M5830 4034 c0 -8 5 -12 10 -9 6 4 8 11 5 16 -9 14 -15 11 -15 -7z"/>
<path d="M5775 3960 c-3 -5 -1 -10 4 -10 6 0 11 5 11 10 0 6 -2 10 -4 10 -3 0
-8 -4 -11 -10z"/>
<path d="M7290 2826 c0 -9 7 -16 16 -16 9 0 14 5 12 12 -6 18 -28 21 -28 4z"/>
<path d="M7370 2825 c-10 -12 -10 -15 4 -15 9 0 16 7 16 15 0 8 -2 15 -4 15
-2 0 -9 -7 -16 -15z"/>
<path d="M4977 2587 c-4 -10 -12 -15 -18 -11 -8 4 -9 0 -4 -15 3 -12 2 -21 -4
-21 -5 0 -18 -25 -27 -55 -10 -30 -21 -55 -26 -55 -4 0 -8 -10 -8 -23 0 -13
-3 -27 -7 -31 -7 -7 -31 -106 -32 -133 -1 -22 19 -14 28 10 5 13 16 29 25 36
10 9 16 29 16 57 0 24 4 44 9 44 4 0 14 28 21 62 6 33 18 71 27 84 8 13 13 33
11 46 -3 20 -4 21 -11 5z"/>
<path d="M5332 2495 c0 -16 2 -22 5 -12 2 9 2 23 0 30 -3 6 -5 -1 -5 -18z"/>
<path d="M5915 3660 c4 -6 11 -8 16 -5 14 9 11 15 -7 15 -8 0 -12 -5 -9 -10z"/>
<path d="M6100 4131 c0 -5 5 -13 10 -16 6 -3 10 -2 10 4 0 5 -4 13 -10 16 -5
3 -10 2 -10 -4z"/>
<path d="M5630 1406 c0 -2 7 -6 15 -10 8 -3 15 -1 15 4 0 6 -7 10 -15 10 -8 0
-15 -2 -15 -4z"/>
<path d="M9560 5899 c-9 -16 -8 -26 5 -45 8 -13 22 -24 30 -24 19 0 45 28 45
49 0 41 -61 57 -80 20z"/>
<path d="M3053 1673 c-19 -7 -16 -37 8 -67 11 -14 18 -30 14 -35 -9 -15 -33
-2 -41 21 -4 15 -9 17 -17 8 -9 -9 -6 -16 12 -31 50 -41 90 -10 52 41 -26 36
-27 50 -1 50 12 0 25 -10 32 -26 11 -23 13 -24 19 -7 10 28 -44 60 -78 46z"/>
<path d="M3170 1600 c-11 -7 -7 -10 17 -10 23 0 36 -6 44 -21 17 -32 -2 -44
-39 -25 -42 22 -52 20 -52 -8 0 -26 33 -56 61 -56 21 0 59 46 59 71 0 18 -44
59 -64 59 -6 0 -18 -5 -26 -10z m25 -72 c33 -15 32 -30 -2 -26 -17 2 -29 10
-31 21 -4 20 -1 21 33 5z"/>
<path d="M3303 1538 c2 -7 -4 -30 -14 -50 -23 -46 -24 -58 -2 -58 9 0 14 3 10
6 -8 8 29 81 44 86 6 2 -1 9 -16 16 -21 10 -26 10 -22 0z"/>
<path d="M3410 1478 c0 -13 -7 -34 -16 -46 -13 -19 -22 -22 -46 -17 -23 6 -29
4 -26 -6 3 -8 17 -13 31 -12 15 1 26 -3 24 -10 -1 -6 6 -13 16 -15 11 -2 17 1
15 10 -3 16 22 80 35 89 5 4 0 12 -12 18 -19 10 -21 9 -21 -11z"/>
<path d="M3559 1399 c-9 -18 -6 -26 20 -53 17 -18 28 -35 25 -39 -15 -14 -34
-6 -48 21 l-15 27 -1 -27 c0 -23 5 -28 34 -34 63 -11 71 8 25 61 -27 31 -29
36 -13 42 12 4 24 -2 41 -23 l23 -29 0 25 c0 17 -8 29 -27 38 -38 17 -51 15
-64 -9z"/>
<path d="M3241 1396 c-9 -10 -9 -16 -1 -21 17 -10 37 12 24 25 -8 8 -15 6 -23
-4z"/>
<path d="M3963 1230 c-2 -32 0 -61 5 -63 4 -3 26 -8 49 -12 38 -6 41 -5 36 14
-3 11 2 34 11 52 18 36 18 34 -9 43 -18 5 -20 1 -21 -35 0 -24 -6 -44 -15 -50
-35 -22 -49 14 -25 63 18 35 18 33 -9 42 -18 5 -20 0 -22 -54z"/>
<path d="M6527 1214 c-8 -8 1 -24 14 -24 5 0 9 7 9 15 0 15 -12 20 -23 9z"/>
</g>
</svg>
